<svg xmlns="http://www.w3.org/2000/svg" viewBox="0 0 1820 1400" font-family="'Segoe UI', 'Helvetica Neue', Arial, sans-serif">
  <defs>
    <linearGradient id="bgGrad" x1="0%" y1="0%" x2="0%" y2="100%">
      <stop offset="0%" style="stop-color:#0a0e1a"/>
      <stop offset="100%" style="stop-color:#111827"/>
    </linearGradient>
    <linearGradient id="perceptionGrad" x1="0%" y1="0%" x2="100%" y2="0%">
      <stop offset="0%" style="stop-color:#1e3a5f"/>
      <stop offset="100%" style="stop-color:#1e3a5f88"/>
    </linearGradient>
    <linearGradient id="comprehensionGrad" x1="0%" y1="0%" x2="100%" y2="0%">
      <stop offset="0%" style="stop-color:#78350f"/>
      <stop offset="100%" style="stop-color:#78350f88"/>
    </linearGradient>
    <linearGradient id="projectionGrad" x1="0%" y1="0%" x2="100%" y2="0%">
      <stop offset="0%" style="stop-color:#7c2d12"/>
      <stop offset="100%" style="stop-color:#7c2d1288"/>
    </linearGradient>
    <linearGradient id="boardGrad" x1="0%" y1="0%" x2="0%" y2="100%">
      <stop offset="0%" style="stop-color:#4c1d95"/>
      <stop offset="100%" style="stop-color:#2e1065"/>
    </linearGradient>
    <filter id="softGlow">
      <feGaussianBlur stdDeviation="1.5" result="blur"/>
      <feMerge><feMergeNode in="blur"/><feMergeNode in="SourceGraphic"/></feMerge>
    </filter>
    <marker id="arrowBlue" markerWidth="10" markerHeight="7" refX="10" refY="3.5" orient="auto">
      <path d="M0,0 L10,3.5 L0,7" fill="#38bdf8"/>
    </marker>
    <marker id="arrowAmber" markerWidth="10" markerHeight="7" refX="10" refY="3.5" orient="auto">
      <path d="M0,0 L10,3.5 L0,7" fill="#fbbf24"/>
    </marker>
    <marker id="arrowLime" markerWidth="10" markerHeight="7" refX="10" refY="3.5" orient="auto">
      <path d="M0,0 L10,3.5 L0,7" fill="#84cc16"/>
    </marker>
    <marker id="arrowOrange" markerWidth="10" markerHeight="7" refX="10" refY="3.5" orient="auto">
      <path d="M0,0 L10,3.5 L0,7" fill="#f97316"/>
    </marker>
    <marker id="arrowGreen" markerWidth="10" markerHeight="7" refX="10" refY="3.5" orient="auto">
      <path d="M0,0 L10,3.5 L0,7" fill="#34d399"/>
    </marker>
    <marker id="arrowPurple" markerWidth="10" markerHeight="7" refX="10" refY="3.5" orient="auto">
      <path d="M0,0 L10,3.5 L0,7" fill="#a78bfa"/>
    </marker>
    <marker id="arrowGray" markerWidth="10" markerHeight="7" refX="10" refY="3.5" orient="auto">
      <path d="M0,0 L10,3.5 L0,7" fill="#6b7280"/>
    </marker>
  </defs>

  <!-- Background -->
  <rect width="1820" height="1400" fill="url(#bgGrad)"/>

  <!-- Subtle grid -->
  <g opacity="0.03" stroke="#ffffff" stroke-width="0.5">
    <line x1="0" y1="80" x2="1820" y2="80"/><line x1="0" y1="160" x2="1820" y2="160"/>
    <line x1="0" y1="240" x2="1820" y2="240"/><line x1="0" y1="320" x2="1820" y2="320"/>
    <line x1="0" y1="400" x2="1820" y2="400"/><line x1="0" y1="480" x2="1820" y2="480"/>
    <line x1="0" y1="560" x2="1820" y2="560"/><line x1="0" y1="640" x2="1820" y2="640"/>
    <line x1="0" y1="720" x2="1820" y2="720"/><line x1="0" y1="800" x2="1820" y2="800"/>
    <line x1="0" y1="880" x2="1820" y2="880"/><line x1="0" y1="960" x2="1820" y2="960"/>
    <line x1="0" y1="1040" x2="1820" y2="1040"/><line x1="0" y1="1120" x2="1820" y2="1120"/>
    <line x1="0" y1="1200" x2="1820" y2="1200"/><line x1="0" y1="1280" x2="1820" y2="1280"/>
    <line x1="80" y1="0" x2="80" y2="1400"/><line x1="160" y1="0" x2="160" y2="1400"/>
    <line x1="240" y1="0" x2="240" y2="1400"/><line x1="320" y1="0" x2="320" y2="1400"/>
    <line x1="400" y1="0" x2="400" y2="1400"/><line x1="480" y1="0" x2="480" y2="1400"/>
    <line x1="560" y1="0" x2="560" y2="1400"/><line x1="640" y1="0" x2="640" y2="1400"/>
    <line x1="720" y1="0" x2="720" y2="1400"/><line x1="800" y1="0" x2="800" y2="1400"/>
    <line x1="880" y1="0" x2="880" y2="1400"/><line x1="960" y1="0" x2="960" y2="1400"/>
    <line x1="1040" y1="0" x2="1040" y2="1400"/><line x1="1120" y1="0" x2="1120" y2="1400"/>
    <line x1="1200" y1="0" x2="1200" y2="1400"/><line x1="1280" y1="0" x2="1280" y2="1400"/>
    <line x1="1360" y1="0" x2="1360" y2="1400"/><line x1="1440" y1="0" x2="1440" y2="1400"/>
    <line x1="1520" y1="0" x2="1520" y2="1400"/><line x1="1600" y1="0" x2="1600" y2="1400"/>
    <line x1="1680" y1="0" x2="1680" y2="1400"/><line x1="1760" y1="0" x2="1760" y2="1400"/>
  </g>

  <!-- ═══════════════ TITLE ═══════════════ -->
  <text x="880" y="46" text-anchor="middle" fill="#f9fafb" font-size="26" font-weight="700" letter-spacing="2">PROPOSED STATE: THE COMMON OPERATING PICTURE</text>
  <text x="880" y="72" text-anchor="middle" fill="#6b7280" font-size="15" letter-spacing="1">ENDSLEY 3-TIER SA · 5 DOMAINS · PUSH-DRIVEN · OODA LOOP</text>
  <line x1="300" y1="88" x2="1460" y2="88" stroke="#1f2937" stroke-width="1"/>


  <!-- ═══════════════════════════════════════════════════════════ -->
  <!-- MAIN COLUMN — centered on x=880                            -->
  <!-- ═══════════════════════════════════════════════════════════ -->

  <!-- ═══════════════ CEO ═══════════════ -->
  <g transform="translate(880, 140)">
    <rect x="-140" y="-28" width="280" height="56" rx="6" fill="#1e293b" stroke="#38bdf8" stroke-width="1.5" filter="url(#softGlow)"/>
    <text x="0" y="-2" text-anchor="middle" fill="#38bdf8" font-size="14" font-weight="700" letter-spacing="1">CEO (HUMAN)</text>
    <text x="0" y="16" text-anchor="middle" fill="#64748b" font-size="11">Gas in the tank? Team set? Path clear?</text>
  </g>

  <!-- Push/drill arrows CEO ↔ SPOK -->
  <line x1="840" y1="170" x2="840" y2="232" stroke="#34d399" stroke-width="1.5" marker-end="url(#arrowGreen)"/>
  <text x="822" y="207" fill="#34d399" font-size="10" text-anchor="end" font-weight="500">push alerts</text>
  <line x1="920" y1="170" x2="920" y2="232" stroke="#38bdf8" stroke-width="1" stroke-dasharray="5,4" marker-end="url(#arrowBlue)"/>
  <text x="938" y="207" fill="#38bdf8" font-size="10" font-weight="500">drill down</text>


  <!-- ═══════════════ SPOK ═══════════════ -->
  <g transform="translate(880, 278)">
    <rect x="-220" y="-34" width="440" height="68" rx="6" fill="#1e293b" stroke="#34d399" stroke-width="1.5"/>
    <text x="0" y="-8" text-anchor="middle" fill="#34d399" font-size="16" font-weight="700">SPOK</text>
    <text x="0" y="10" text-anchor="middle" fill="#6b7280" font-size="11">Executive Function · Central Executive · OODA Orient</text>
    <text x="0" y="24" text-anchor="middle" fill="#34d39988" font-size="10">READS all · WRITES strategy + cross-domain · OWNS Projection tier</text>
  </g>

  <!-- SPOK write badge -->
  <g transform="translate(1160, 254)">
    <rect x="0" y="0" width="180" height="58" rx="4" fill="#0f172a" stroke="#34d39955" stroke-width="1"/>
    <text x="90" y="18" text-anchor="middle" fill="#34d399" font-size="10" font-weight="600" letter-spacing="1">SPOK WRITES</text>
    <text x="90" y="34" text-anchor="middle" fill="#6b7280" font-size="9">Everything (executive auth)</text>
    <text x="90" y="48" text-anchor="middle" fill="#6b7280" font-size="9">Convenes BoardVroom</text>
  </g>

  <!-- Arrow from SPOK down to agent row -->
  <line x1="880" y1="312" x2="880" y2="368" stroke="#6b7280" stroke-width="1" marker-end="url(#arrowGray)"/>


  <!-- ═══════════════ DOMAIN AGENTS (4 C-LEVEL) ═══════════════ -->
  <g transform="translate(880, 420)">
    <!-- Container -->
    <rect x="-480" y="-36" width="960" height="64" rx="4" fill="none" stroke="#ffffff11" stroke-width="1"/>
    <text x="-458" y="-42" fill="#94a3b8" font-size="10" font-weight="600" letter-spacing="1" opacity="0.5">DOMAIN AGENTS (C-LEVEL SPECIALISTS)</text>

    <!-- CTO — far left -->
    <g transform="translate(-340, 0)">
      <rect x="-108" y="-22" width="216" height="44" rx="4" fill="#1e293b" stroke="#38bdf8" stroke-width="1"/>
      <text x="0" y="-1" text-anchor="middle" fill="#38bdf8" font-size="13" font-weight="600">CTO Agent</text>
      <text x="0" y="15" text-anchor="middle" fill="#64748b" font-size="10">Tech health · Deploys · Infra</text>
    </g>

    <!-- CFO — center-left -->
    <g transform="translate(-108, 0)">
      <rect x="-108" y="-22" width="216" height="44" rx="4" fill="#1e293b" stroke="#fbbf24" stroke-width="1"/>
      <text x="0" y="-1" text-anchor="middle" fill="#fbbf24" font-size="13" font-weight="600">CFO Agent</text>
      <text x="0" y="15" text-anchor="middle" fill="#64748b" font-size="10">Finance · Budget · Stewardship</text>
    </g>

    <!-- CGO — center-right -->
    <g transform="translate(124, 0)">
      <rect x="-108" y="-22" width="216" height="44" rx="4" fill="#1e293b" stroke="#84cc16" stroke-width="1"/>
      <text x="0" y="-1" text-anchor="middle" fill="#84cc16" font-size="13" font-weight="600">CGO Agent</text>
      <text x="0" y="15" text-anchor="middle" fill="#64748b" font-size="10">Growth · Pipeline · Partnerships</text>
    </g>

    <!-- CDO — far right -->
    <g transform="translate(356, 0)">
      <rect x="-108" y="-22" width="216" height="44" rx="4" fill="#1e293b" stroke="#f97316" stroke-width="1"/>
      <text x="0" y="-1" text-anchor="middle" fill="#f97316" font-size="13" font-weight="600">CDO Agent</text>
      <text x="0" y="15" text-anchor="middle" fill="#64748b" font-size="10">Docs · Publications · Content</text>
    </g>

    <!-- ─── CFO ↔ CGO TENSION ARC ─── -->
    <path d="M-50,-22 C-50,-48 58,-48 58,-22" fill="none" stroke="#fbbf2466" stroke-width="1.5" stroke-dasharray="5,3"/>
    <g transform="translate(4, -54)">
      <rect x="-60" y="-10" width="120" height="20" rx="10" fill="#0f172a" stroke="#fbbf2444" stroke-width="0.5"/>
      <text x="0" y="4" text-anchor="middle" fill="#fbbf24" font-size="9" font-weight="500" opacity="0.8">CREATIVE TENSION</text>
    </g>
    <text x="-108" y="-30" text-anchor="middle" fill="#fbbf2455" font-size="8" font-style="italic">defensive</text>
    <text x="124" y="-30" text-anchor="middle" fill="#84cc1655" font-size="8" font-style="italic">offensive</text>
  </g>

  <!-- Arrows from agents down to COP -->
  <line x1="540" y1="462" x2="540" y2="528" stroke="#38bdf8" stroke-width="1.5" marker-end="url(#arrowBlue)"/>
  <line x1="772" y1="462" x2="772" y2="528" stroke="#fbbf24" stroke-width="1.5" marker-end="url(#arrowAmber)"/>
  <line x1="1004" y1="462" x2="1004" y2="528" stroke="#84cc16" stroke-width="1.5" marker-end="url(#arrowLime)"/>
  <line x1="1236" y1="462" x2="1236" y2="528" stroke="#f97316" stroke-width="1.5" marker-end="url(#arrowOrange)"/>
  <text x="524" y="500" fill="#38bdf8" font-size="9" text-anchor="end">writes</text>
  <text x="756" y="500" fill="#fbbf24" font-size="9" text-anchor="end">writes</text>
  <text x="1020" y="500" fill="#84cc16" font-size="9">writes</text>
  <text x="1252" y="500" fill="#f97316" font-size="9">writes</text>

  <!-- SPOK arrow to Projection tier — routes right of COP, curves in from the right side -->
  <path d="M1100,312 L1380,312 L1380,858 L1360,858" fill="none" stroke="#34d399" stroke-width="1.5" marker-end="url(#arrowGreen)"/>
  <text x="1396" y="590" fill="#34d399" font-size="10" font-weight="500">SPOK writes</text>
  <text x="1396" y="604" fill="#34d39966" font-size="9">Projection tier</text>


  <!-- ═══════════════ COP — THREE TIERS ═══════════════ -->
  <g transform="translate(880, 546)">
    <!-- Main container -->
    <rect x="-440" y="-8" width="880" height="408" rx="10" fill="#0f172a" stroke="#e2e8f066" stroke-width="1.5"/>
    <text x="0" y="18" text-anchor="middle" fill="#f9fafb" font-size="16" font-weight="700" letter-spacing="2">deepspok COP</text>
    <text x="0" y="38" text-anchor="middle" fill="#64748b" font-size="11">Supabase + pgvector — repurposed as 3-tier Common Operating Picture</text>

    <!-- ─── PERCEPTION (L1) — BLUE ─── -->
    <g transform="translate(0, 72)">
      <rect x="-415" y="-18" width="830" height="88" rx="6" fill="url(#perceptionGrad)" fill-opacity="0.4" stroke="#38bdf8" stroke-width="1"/>
      <text x="-392" y="4" fill="#38bdf8" font-size="13" font-weight="700">PERCEPTION</text>
      <text x="-262" y="4" fill="#38bdf888" font-size="10">Endsley Level 1 · Raw events · Auto-pruned · Hours to days</text>

      <!-- 5 domain columns -->
      <rect x="-395" y="16" width="150" height="40" rx="3" fill="#0f172a88" stroke="#38bdf844" stroke-width="0.5"/>
      <text x="-320" y="32" text-anchor="middle" fill="#38bdf8" font-size="10" font-weight="500">/perception/tech/</text>
      <text x="-320" y="46" text-anchor="middle" fill="#64748b" font-size="9">"HV v2.3 deployed"</text>

      <rect x="-232" y="16" width="152" height="40" rx="3" fill="#0f172a88" stroke="#fbbf2444" stroke-width="0.5"/>
      <text x="-156" y="32" text-anchor="middle" fill="#fbbf24" font-size="10" font-weight="500">/perception/finance/</text>
      <text x="-156" y="46" text-anchor="middle" fill="#64748b" font-size="9">"Deal closed: Acme"</text>

      <rect x="-67" y="16" width="160" height="40" rx="3" fill="#0f172a88" stroke="#84cc1644" stroke-width="0.5"/>
      <text x="13" y="32" text-anchor="middle" fill="#84cc16" font-size="10" font-weight="500">/perception/growth/</text>
      <text x="13" y="46" text-anchor="middle" fill="#64748b" font-size="9">"Partnership inquiry: XYZ"</text>

      <rect x="106" y="16" width="150" height="40" rx="3" fill="#0f172a88" stroke="#f9731644" stroke-width="0.5"/>
      <text x="181" y="32" text-anchor="middle" fill="#f97316" font-size="10" font-weight="500">/perception/docs/</text>
      <text x="181" y="46" text-anchor="middle" fill="#64748b" font-size="9">"API v3 docs published"</text>

      <rect x="269" y="16" width="143" height="40" rx="3" fill="#0f172a88" stroke="#6b728044" stroke-width="0.5"/>
      <text x="341" y="32" text-anchor="middle" fill="#94a3b8" font-size="10" font-weight="500">/perception/people/</text>
      <text x="341" y="46" text-anchor="middle" fill="#64748b" font-size="9">"New contact added"</text>
    </g>

    <!-- ─── COMPREHENSION (L2) — AMBER ─── -->
    <g transform="translate(0, 185)">
      <rect x="-415" y="-18" width="830" height="88" rx="6" fill="url(#comprehensionGrad)" fill-opacity="0.4" stroke="#fbbf24" stroke-width="1"/>
      <text x="-392" y="4" fill="#fbbf24" font-size="13" font-weight="700">COMPREHENSION</text>
      <text x="-240" y="4" fill="#fbbf2488" font-size="10">Endsley Level 2 · Interpreted state · UPDATED not appended · Days to weeks</text>

      <!-- 5 domain assessments -->
      <rect x="-395" y="16" width="148" height="40" rx="3" fill="#0f172a88" stroke="#38bdf844" stroke-width="0.5"/>
      <text x="-321" y="32" text-anchor="middle" fill="#38bdf8" font-size="10" font-weight="500">/tech-status/</text>
      <text x="-321" y="46" text-anchor="middle" fill="#64748b" font-size="9">"Tech stable, no issues"</text>

      <rect x="-234" y="16" width="148" height="40" rx="3" fill="#0f172a88" stroke="#fbbf2444" stroke-width="0.5"/>
      <text x="-160" y="32" text-anchor="middle" fill="#fbbf24" font-size="10" font-weight="500">/finance-status/</text>
      <text x="-160" y="46" text-anchor="middle" fill="#64748b" font-size="9">"Q2 pipeline +15%"</text>

      <rect x="-73" y="16" width="164" height="40" rx="3" fill="#0f172a88" stroke="#84cc1644" stroke-width="0.5"/>
      <text x="9" y="32" text-anchor="middle" fill="#84cc16" font-size="10" font-weight="500">/growth-status/</text>
      <text x="9" y="46" text-anchor="middle" fill="#64748b" font-size="9">"3 leads active, 1 near close"</text>

      <rect x="104" y="16" width="148" height="40" rx="3" fill="#0f172a88" stroke="#f9731644" stroke-width="0.5"/>
      <text x="178" y="32" text-anchor="middle" fill="#f97316" font-size="10" font-weight="500">/docs-status/</text>
      <text x="178" y="46" text-anchor="middle" fill="#64748b" font-size="9">"Coverage gap: API v3"</text>

      <rect x="265" y="16" width="148" height="40" rx="3" fill="#0f172a88" stroke="#34d39944" stroke-width="0.5"/>
      <text x="339" y="32" text-anchor="middle" fill="#34d399" font-size="10" font-weight="500">/org-health/</text>
      <text x="339" y="46" text-anchor="middle" fill="#64748b" font-size="9">SPOK cross-domain</text>
    </g>

    <!-- ─── PROJECTION (L3) — RED/ORANGE ─── -->
    <g transform="translate(0, 298)">
      <rect x="-415" y="-18" width="830" height="88" rx="6" fill="url(#projectionGrad)" fill-opacity="0.4" stroke="#f97316" stroke-width="1"/>
      <text x="-392" y="4" fill="#f97316" font-size="13" font-weight="700">PROJECTION</text>
      <text x="-270" y="4" fill="#f9731688" font-size="10">Endsley Level 3 · Forward-looking · Owned by SPOK · Until resolved</text>

      <rect x="-395" y="16" width="250" height="40" rx="3" fill="#0f172a88" stroke="#ef444444" stroke-width="0.5"/>
      <text x="-270" y="32" text-anchor="middle" fill="#ef4444" font-size="10" font-weight="500">/risks/</text>
      <text x="-270" y="46" text-anchor="middle" fill="#64748b" font-size="9">"API docs won't make April launch"</text>

      <rect x="-130" y="16" width="260" height="40" rx="3" fill="#0f172a88" stroke="#34d39944" stroke-width="0.5"/>
      <text x="0" y="32" text-anchor="middle" fill="#34d399" font-size="10" font-weight="500">/opportunities/</text>
      <text x="0" y="46" text-anchor="middle" fill="#64748b" font-size="9">"New partnership shifts Q2 projections"</text>

      <rect x="145" y="16" width="268" height="40" rx="3" fill="#0f172a88" stroke="#a78bfa44" stroke-width="0.5"/>
      <text x="279" y="32" text-anchor="middle" fill="#a78bfa" font-size="10" font-weight="500">/decisions-needed/</text>
      <text x="279" y="46" text-anchor="middle" fill="#64748b" font-size="9">"Scope adjust or accelerate CDO + CGO?"</text>
    </g>

    <!-- Inter-tier flow arrows -->
    <line x1="0" y1="142" x2="0" y2="166" stroke="#fbbf2466" stroke-width="1" marker-end="url(#arrowAmber)"/>
    <line x1="0" y1="255" x2="0" y2="279" stroke="#f9731666" stroke-width="1" marker-end="url(#arrowOrange)"/>
  </g>


  <!-- ═══════════════ BOARDVROOM ═══════════════ -->
  <g transform="translate(1610, 680)">
    <rect x="-145" y="-110" width="290" height="270" rx="10" fill="url(#boardGrad)" fill-opacity="0.6" stroke="#a78bfa" stroke-width="1.5" stroke-dasharray="6,3"/>

    <text x="0" y="-86" text-anchor="middle" fill="#a78bfa" font-size="13" font-weight="700" letter-spacing="2">BOARDVROOM</text>
    <text x="0" y="-68" text-anchor="middle" fill="#a78bfa88" font-size="10">Decision Chamber · Convened by SPOK</text>
    <text x="0" y="-52" text-anchor="middle" fill="#a78bfa66" font-size="9">Not always running · High-stakes only</text>

    <!-- Four model slots -->
    <g transform="translate(0, -10)">
      <rect x="-115" y="-18" width="110" height="36" rx="4" fill="#1e1040" stroke="#a78bfa55" stroke-width="0.5"/>
      <text x="-60" y="5" text-anchor="middle" fill="#c4b5fd" font-size="11" font-weight="500">Model A</text>
      <rect x="5" y="-18" width="110" height="36" rx="4" fill="#1e1040" stroke="#a78bfa55" stroke-width="0.5"/>
      <text x="60" y="5" text-anchor="middle" fill="#c4b5fd" font-size="11" font-weight="500">Model B</text>
      <rect x="-115" y="28" width="110" height="36" rx="4" fill="#1e1040" stroke="#a78bfa55" stroke-width="0.5"/>
      <text x="-60" y="51" text-anchor="middle" fill="#c4b5fd" font-size="11" font-weight="500">Model C</text>
      <rect x="5" y="28" width="110" height="36" rx="4" fill="#1e1040" stroke="#a78bfa55" stroke-width="0.5"/>
      <text x="60" y="51" text-anchor="middle" fill="#c4b5fd" font-size="11" font-weight="500">Model D</text>
    </g>

    <!-- Chairman -->
    <rect x="-90" y="80" width="180" height="32" rx="4" fill="#1e1040" stroke="#a78bfa" stroke-width="1"/>
    <text x="0" y="101" text-anchor="middle" fill="#a78bfa" font-size="11" font-weight="600">Chairman Synthesis</text>

    <line x1="-60" y1="64" x2="-45" y2="80" stroke="#a78bfa44" stroke-width="0.5"/>
    <line x1="60" y1="64" x2="45" y2="80" stroke="#a78bfa44" stroke-width="0.5"/>

    <text x="0" y="130" text-anchor="middle" fill="#a78bfa77" font-size="9">Independent analysis → Anonymous peer-review</text>
    <text x="0" y="144" text-anchor="middle" fill="#a78bfa77" font-size="9">→ Consensus metrics + dissent notes</text>
  </g>

  <!-- Arrow: Projection /decisions-needed/ → BoardVroom (horizontal from COP right edge, then up to BV) -->
  <path d="M1320,878 L1430,878 L1430,720 L1465,720" fill="none" stroke="#a78bfa" stroke-width="1.5" stroke-dasharray="6,3" marker-end="url(#arrowPurple)"/>
  <text x="1428" y="810" fill="#a78bfa" font-size="9" font-weight="500" text-anchor="end">decision</text>
  <text x="1428" y="824" fill="#a78bfa77" font-size="9" text-anchor="end">needed</text>

  <!-- Arrow: BoardVroom → COP Comprehension (decision updates state) -->
  <path d="M1465,700 L1430,700 L1430,765 L1322,765" fill="none" stroke="#a78bfa" stroke-width="1" marker-end="url(#arrowPurple)"/>
  <text x="1428" y="758" fill="#a78bfa" font-size="9" text-anchor="end">decision → update</text>

  <!-- Arrow: BoardVroom → HeadVroom (clean route along right then bottom) -->
  <path d="M1610,830 L1610,1168 L500,1168 L500,1148" fill="none" stroke="#a78bfa" stroke-width="1" stroke-dasharray="5,4" marker-end="url(#arrowPurple)"/>
  <text x="1055" y="1162" fill="#a78bfa" font-size="10" text-anchor="middle">decision rationale → knowledge artifact</text>


  <!-- ═══════════════ SUBSYSTEMS — CONNECTED ═══════════════ -->
  <line x1="380" y1="1012" x2="1380" y2="1012" stroke="#34d39933" stroke-width="1"/>
  <text x="880" y="1032" text-anchor="middle" fill="#34d399" font-size="11" font-weight="500" opacity="0.5" letter-spacing="3">EVENT FLOW — SUBSYSTEMS CONNECTED TO COP</text>

  <g transform="translate(0, 1105)">
    <!-- HeadVroom -->
    <g transform="translate(500, 0)">
      <rect x="-125" y="-38" width="250" height="76" rx="6" fill="#1e293b" stroke="#34d399" stroke-width="1"/>
      <text x="0" y="-12" text-anchor="middle" fill="#34d399" font-size="14" font-weight="600">HeadVroom</text>
      <text x="0" y="6" text-anchor="middle" fill="#64748b" font-size="11">Knowledge Graph</text>
      <text x="0" y="22" text-anchor="middle" fill="#34d39988" font-size="9">Feeds events · Receives decisions</text>
    </g>

    <!-- PeoplePerson -->
    <g transform="translate(800, 0)">
      <rect x="-125" y="-38" width="250" height="76" rx="6" fill="#1e293b" stroke="#34d399" stroke-width="1"/>
      <text x="0" y="-12" text-anchor="middle" fill="#34d399" font-size="14" font-weight="600">PeoplePerson</text>
      <text x="0" y="6" text-anchor="middle" fill="#64748b" font-size="11">CRM</text>
      <text x="0" y="22" text-anchor="middle" fill="#34d39988" font-size="9">Feeds relationship events</text>
    </g>

    <!-- BeaverDam -->
    <g transform="translate(1100, 0)">
      <rect x="-125" y="-38" width="250" height="76" rx="6" fill="#1e293b" stroke="#34d399" stroke-width="1"/>
      <text x="0" y="-12" text-anchor="middle" fill="#34d399" font-size="14" font-weight="600">BeaverDam</text>
      <text x="0" y="6" text-anchor="middle" fill="#64748b" font-size="11">Assets / CMS</text>
      <text x="0" y="22" text-anchor="middle" fill="#34d39988" font-size="9">Feeds asset events</text>
    </g>

    <!-- External Services -->
    <g transform="translate(1380, 0)">
      <rect x="-115" y="-38" width="230" height="76" rx="6" fill="#1e293b" stroke="#6b7280" stroke-width="1" stroke-dasharray="4,2"/>
      <text x="0" y="-12" text-anchor="middle" fill="#94a3b8" font-size="14" font-weight="600">External Services</text>
      <text x="0" y="6" text-anchor="middle" fill="#64748b" font-size="11">Calendar · Gmail · Slack · APIs</text>
      <text x="0" y="22" text-anchor="middle" fill="#6b728088" font-size="9">Feeds via MCP integrations</text>
    </g>
  </g>

  <!-- Subsystem up-arrows to event flow bar -->
  <line x1="500" y1="1067" x2="500" y2="1012" stroke="#34d399" stroke-width="1.5" marker-end="url(#arrowGreen)"/>
  <line x1="800" y1="1067" x2="800" y2="1012" stroke="#34d399" stroke-width="1.5" marker-end="url(#arrowGreen)"/>
  <line x1="1100" y1="1067" x2="1100" y2="1012" stroke="#34d399" stroke-width="1.5" marker-end="url(#arrowGreen)"/>
  <line x1="1380" y1="1067" x2="1380" y2="1012" stroke="#6b7280" stroke-width="1" stroke-dasharray="3,3" marker-end="url(#arrowGray)"/>

  <!-- Dotted connector lines from event bar up into COP perception -->
  <line x1="500" y1="1012" x2="500" y2="960" stroke="#34d39944" stroke-width="1" stroke-dasharray="3,3"/>
  <line x1="800" y1="1012" x2="800" y2="960" stroke="#34d39944" stroke-width="1" stroke-dasharray="3,3"/>
  <line x1="1100" y1="1012" x2="1100" y2="960" stroke="#34d39944" stroke-width="1" stroke-dasharray="3,3"/>

  <text x="650" y="1004" fill="#34d39966" font-size="9">Subsystems write to /perception/ only</text>


  <!-- ═══════════════════════════════════════════════════════════ -->
  <!-- LEFT SIDEBAR LEGENDS — x=55, width 275                     -->
  <!-- ═══════════════════════════════════════════════════════════ -->

  <!-- ═══════════════ WRITE PERMISSIONS ═══════════════ -->
  <g transform="translate(55, 548)">
    <rect x="0" y="0" width="275" height="230" rx="6" fill="#0f172a" stroke="#e2e8f022" stroke-width="1"/>
    <text x="138" y="24" text-anchor="middle" fill="#f9fafb" font-size="12" font-weight="700" letter-spacing="1">WRITE PERMISSIONS</text>
    <line x1="12" y1="34" x2="263" y2="34" stroke="#e2e8f011" stroke-width="0.5"/>

    <text x="18" y="58" fill="#38bdf8" font-size="11" font-weight="500">CTO</text>
    <text x="62" y="58" fill="#64748b" font-size="10">/percep/tech · /comp/tech</text>

    <text x="18" y="82" fill="#fbbf24" font-size="11" font-weight="500">CFO</text>
    <text x="62" y="82" fill="#64748b" font-size="10">/percep/fin · /comp/fin</text>

    <text x="18" y="106" fill="#84cc16" font-size="11" font-weight="500">CGO</text>
    <text x="62" y="106" fill="#64748b" font-size="10">/percep/growth · /comp/growth</text>

    <text x="18" y="130" fill="#f97316" font-size="11" font-weight="500">CDO</text>
    <text x="62" y="130" fill="#64748b" font-size="10">/percep/docs · /comp/docs</text>

    <text x="18" y="154" fill="#34d399" font-size="11" font-weight="500">SPOK</text>
    <text x="62" y="154" fill="#64748b" font-size="10">Everything (exec authority)</text>

    <text x="18" y="178" fill="#94a3b8" font-size="11" font-weight="500">Subsys</text>
    <text x="72" y="178" fill="#64748b" font-size="10">/perception/ only (events)</text>

    <line x1="12" y1="190" x2="263" y2="190" stroke="#e2e8f011" stroke-width="0.5"/>
    <text x="138" y="208" text-anchor="middle" fill="#34d39988" font-size="9">Everyone reads everything</text>
    <text x="138" y="222" text-anchor="middle" fill="#fbbf2466" font-size="9">CFO ↔ CGO = creative tension</text>
  </g>

  <!-- ═══════════════ OODA CYCLE ═══════════════ -->
  <g transform="translate(55, 808)">
    <rect x="0" y="0" width="275" height="138" rx="6" fill="#0f172a" stroke="#e2e8f022" stroke-width="1"/>
    <text x="138" y="24" text-anchor="middle" fill="#f9fafb" font-size="12" font-weight="700" letter-spacing="1">OODA CYCLE</text>
    <line x1="12" y1="34" x2="263" y2="34" stroke="#e2e8f011" stroke-width="0.5"/>
    <text x="18" y="56" fill="#38bdf8" font-size="11">Observe</text>
    <text x="85" y="56" fill="#64748b" font-size="10">Subsys → Perception</text>
    <text x="18" y="78" fill="#fbbf24" font-size="11">Orient</text>
    <text x="85" y="78" fill="#64748b" font-size="10">4 Agents → Comprehension</text>
    <text x="18" y="100" fill="#f97316" font-size="11">Decide</text>
    <text x="85" y="100" fill="#64748b" font-size="10">SPOK → Projection (+BV)</text>
    <text x="18" y="122" fill="#34d399" font-size="11">Act</text>
    <text x="85" y="122" fill="#64748b" font-size="10">Execute → new events</text>
    <text x="138" y="136" text-anchor="middle" fill="#6b728088" font-size="9">Continuous cycle</text>
  </g>

  <!-- ═══════════════ ENDSLEY LEVELS ═══════════════ -->
  <g transform="translate(55, 976)">
    <rect x="0" y="0" width="275" height="108" rx="6" fill="#0f172a" stroke="#e2e8f022" stroke-width="1"/>
    <text x="138" y="24" text-anchor="middle" fill="#f9fafb" font-size="12" font-weight="700" letter-spacing="1">ENDSLEY LEVELS</text>
    <line x1="12" y1="34" x2="263" y2="34" stroke="#e2e8f011" stroke-width="0.5"/>
    <rect x="14" y="42" width="247" height="18" rx="3" fill="#1e3a5f66" stroke="#38bdf8" stroke-width="0.5"/>
    <text x="138" y="55" text-anchor="middle" fill="#38bdf8" font-size="10" font-weight="500">L1: Perception ✓</text>
    <rect x="14" y="64" width="247" height="18" rx="3" fill="#78350f44" stroke="#fbbf24" stroke-width="0.5"/>
    <text x="138" y="77" text-anchor="middle" fill="#fbbf24" font-size="10" font-weight="500">L2: Comprehension ✓</text>
    <rect x="14" y="86" width="247" height="18" rx="3" fill="#7c2d1244" stroke="#f97316" stroke-width="0.5"/>
    <text x="138" y="99" text-anchor="middle" fill="#f97316" font-size="10" font-weight="500">L3: Projection ✓</text>
  </g>

  <!-- ═══════════════ KEY PROPERTIES ═══════════════ -->
  <g transform="translate(55, 1114)">
    <rect x="0" y="0" width="275" height="168" rx="6" fill="#0f172a" stroke="#e2e8f022" stroke-width="1"/>
    <text x="138" y="24" text-anchor="middle" fill="#f9fafb" font-size="12" font-weight="700" letter-spacing="1">KEY PROPERTIES</text>
    <line x1="12" y1="34" x2="263" y2="34" stroke="#e2e8f011" stroke-width="0.5"/>
    <text x="18" y="56" fill="#34d399" font-size="10">Derived, not stored</text>
    <text x="18" y="76" fill="#34d399" font-size="10">Continuously refreshed</text>
    <text x="18" y="96" fill="#34d399" font-size="10">Push-driven alerts</text>
    <text x="18" y="116" fill="#34d399" font-size="10">Domain-scoped writes</text>
    <text x="18" y="136" fill="#34d399" font-size="10">Active eviction (TTL)</text>
    <text x="18" y="156" fill="#34d399" font-size="10">Structural diversity (BV)</text>
  </g>

  <!-- ═══════════════ VERSION ═══════════════ -->
  <text x="880" y="1380" text-anchor="middle" fill="#374151" font-size="11">SPOK BRAIN REDESIGN · PROPOSED STATE · v2.0 · March 2026</text>
</svg>